# xmcd
#
# Track frame offsets:
#       150
#       19192
#       34615
#       58360
#       87985
#       109675
#       128252
#       144970
#       159620
#       185335
#
# Disc length: 2715 seconds
#
# Revision: 0
# Processed by: cddbd v1.4PL0 Copyright (c) Steve Scherf et al.
# Submitted via: WhereIsIt 3.25
#
DISCID=7b0a990a
DTITLE=Graeme Connors - A Delicate Balance
DYEAR=1900
DGENRE=
TTITLE0=I Still Enjoy The View
TTITLE1=A Delicate Balance
TTITLE2=These Uncertain Times
TTITLE3=When Lola Came To Town
TTITLE4=New York Winter
TTITLE5=A Soft Place To Fall
TTITLE6=I Notice These Things
TTITLE7=A Little Piece Of Peace
TTITLE8=Paul Robeson On The Steps Of The Sydney Opera House
TTITLE9=The Land Boys We Live In
EXTD=
EXTT0=
EXTT1=
EXTT2=
EXTT3=
EXTT4=
EXTT5=
EXTT6=
EXTT7=
EXTT8=
EXTT9=
PLAYORDER=
